<svg version="1.1" xmlns="http://www.w3.org/2000/svg" viewBox="0 0 821.7887254449029 388.4450374897842" width="2465.3661763347086" height="1165.3351124693527">
  <!-- svg-source:excalidraw -->
  
  <defs>
    <style class="style-fonts">
      @font-face {
        font-family: "Virgil";
        src: url("https://excalidraw.com/Virgil.woff2");
      }
      @font-face {
        font-family: "Cascadia";
        src: url("https://excalidraw.com/Cascadia.woff2");
      }
    </style>
    
  </defs>
  <rect x="0" y="0" width="821.7887254449029" height="388.4450374897842" fill="#ffffff"></rect><g stroke-linecap="round" transform="translate(236.07324837510055 229.35209779861958) rotate(0 118.8507844750759 74.54646984558232)"><path d="M32 0 M32 0 C92.29 0, 152.58 0, 205.7 0 M32 0 C70.42 0, 108.84 0, 205.7 0 M205.7 0 C227.03 0, 237.7 10.67, 237.7 32 M205.7 0 C227.03 0, 237.7 10.67, 237.7 32 M237.7 32 C237.7 57.62, 237.7 83.24, 237.7 117.09 M237.7 32 C237.7 50.64, 237.7 69.28, 237.7 117.09 M237.7 117.09 C237.7 138.43, 227.03 149.09, 205.7 149.09 M237.7 117.09 C237.7 138.43, 227.03 149.09, 205.7 149.09 M205.7 149.09 C137.48 149.09, 69.26 149.09, 32 149.09 M205.7 149.09 C142.09 149.09, 78.48 149.09, 32 149.09 M32 149.09 C10.67 149.09, 0 138.43, 0 117.09 M32 149.09 C10.67 149.09, 0 138.43, 0 117.09 M0 117.09 C0 84.51, 0 51.93, 0 32 M0 117.09 C0 99.19, 0 81.29, 0 32 M0 32 C0 10.67, 10.67 0, 32 0 M0 32 C0 10.67, 10.67 0, 32 0" stroke="#2f9e44" stroke-width="1" fill="none"></path></g><g transform="translate(259.57673833325634 235.4490231796687) rotate(0 14.409446716308594 9.765742055406818)"><text x="0" y="0" font-family="Virgil, Segoe UI Emoji" font-size="15.62518728865091px" fill="#2f9e44" text-anchor="start" style="white-space: pre;" direction="ltr" dominant-baseline="text-before-edge">IAC</text></g><g stroke-linecap="round" transform="translate(532.6017199658222 10.822176841915962) rotate(0 139.59350273954033 181.09079286362817)"><path d="M32 0 M32 0 C79.37 0, 126.75 0, 247.19 0 M32 0 C91.9 0, 151.8 0, 247.19 0 M247.19 0 C268.52 0, 279.19 10.67, 279.19 32 M247.19 0 C268.52 0, 279.19 10.67, 279.19 32 M279.19 32 C279.19 137.05, 279.19 242.1, 279.19 330.18 M279.19 32 C279.19 133.37, 279.19 234.73, 279.19 330.18 M279.19 330.18 C279.19 351.51, 268.52 362.18, 247.19 362.18 M279.19 330.18 C279.19 351.51, 268.52 362.18, 247.19 362.18 M247.19 362.18 C161.64 362.18, 76.1 362.18, 32 362.18 M247.19 362.18 C193.11 362.18, 139.03 362.18, 32 362.18 M32 362.18 C10.67 362.18, 0 351.51, 0 330.18 M32 362.18 C10.67 362.18, 0 351.51, 0 330.18 M0 330.18 C0 263.85, 0 197.52, 0 32 M0 330.18 C0 248.74, 0 167.3, 0 32 M0 32 C0 10.67, 10.67 0, 32 0 M0 32 C0 10.67, 10.67 0, 32 0" stroke="#2f9e44" stroke-width="1" fill="none"></path></g><g transform="translate(549.8014653649805 25.087284467143263) rotate(0 16.079986572265625 10)"><text x="0" y="0" font-family="Virgil, Segoe UI Emoji" font-size="16px" fill="#2f9e44" text-anchor="start" style="white-space: pre;" direction="ltr" dominant-baseline="text-before-edge">AWS</text></g><g stroke-linecap="round" transform="translate(555.6092859750436 64.55476273655961) rotate(0 114.45997445305215 98.34599973885925)"><path d="M32 0 M32 0 C80.2 0, 128.41 0, 196.92 0 M32 0 C86.29 0, 140.59 0, 196.92 0 M196.92 0 C218.25 0, 228.92 10.67, 228.92 32 M196.92 0 C218.25 0, 228.92 10.67, 228.92 32 M228.92 32 C228.92 78.92, 228.92 125.84, 228.92 164.69 M228.92 32 C228.92 82.26, 228.92 132.52, 228.92 164.69 M228.92 164.69 C228.92 186.03, 218.25 196.69, 196.92 196.69 M228.92 164.69 C228.92 186.03, 218.25 196.69, 196.92 196.69 M196.92 196.69 C154.07 196.69, 111.22 196.69, 32 196.69 M196.92 196.69 C162.39 196.69, 127.86 196.69, 32 196.69 M32 196.69 C10.67 196.69, 0 186.03, 0 164.69 M32 196.69 C10.67 196.69, 0 186.03, 0 164.69 M0 164.69 C0 118.7, 0 72.7, 0 32 M0 164.69 C0 137.31, 0 109.93, 0 32 M0 32 C0 10.67, 10.67 0, 32 0 M0 32 C0 10.67, 10.67 0, 32 0" stroke="#2f9e44" stroke-width="1" fill="none"></path></g><g transform="translate(572.2238394075366 85.01267253833379) rotate(0 46.415977478027344 10)"><text x="0" y="0" font-family="Virgil, Segoe UI Emoji" font-size="16px" fill="#2f9e44" text-anchor="start" style="white-space: pre;" direction="ltr" dominant-baseline="text-before-edge">ECS Service</text></g><g stroke-linecap="round" transform="translate(555.9449266216484 276.32346079965714) rotate(0 114.31776030410595 34.2952054861621)"><path d="M17.15 0 M17.15 0 C79.26 0, 141.37 0, 211.49 0 M17.15 0 C85.37 0, 153.59 0, 211.49 0 M211.49 0 C222.92 0, 228.64 5.72, 228.64 17.15 M211.49 0 C222.92 0, 228.64 5.72, 228.64 17.15 M228.64 17.15 C228.64 25.9, 228.64 34.65, 228.64 51.44 M228.64 17.15 C228.64 29.76, 228.64 42.38, 228.64 51.44 M228.64 51.44 C228.64 62.87, 222.92 68.59, 211.49 68.59 M228.64 51.44 C228.64 62.87, 222.92 68.59, 211.49 68.59 M211.49 68.59 C152.39 68.59, 93.3 68.59, 17.15 68.59 M211.49 68.59 C149.77 68.59, 88.06 68.59, 17.15 68.59 M17.15 68.59 C5.72 68.59, 0 62.87, 0 51.44 M17.15 68.59 C5.72 68.59, 0 62.87, 0 51.44 M0 51.44 C0 37.87, 0 24.3, 0 17.15 M0 51.44 C0 43.21, 0 34.98, 0 17.15 M0 17.15 C0 5.72, 5.72 0, 17.15 0 M0 17.15 C0 5.72, 5.72 0, 17.15 0" stroke="#2f9e44" stroke-width="1" fill="none"></path></g><g transform="translate(565.0581251845574 283.6004030077608) rotate(0 15.967987060546875 10)"><text x="0" y="0" font-family="Virgil, Segoe UI Emoji" font-size="16px" fill="#2f9e44" text-anchor="start" style="white-space: pre;" direction="ltr" dominant-baseline="text-before-edge">ECR</text></g><g stroke-linecap="round" transform="translate(246.0115782691787 260.2002460063939) rotate(0.06774835636379574 109.24199289730097 53.80555789492105)"><path d="M26.9 0 M26.9 0 C83.37 0, 139.84 0, 191.58 0 M26.9 0 C87.9 0, 148.91 0, 191.58 0 M191.58 0 C209.52 0, 218.48 8.97, 218.48 26.9 M191.58 0 C209.52 0, 218.48 8.97, 218.48 26.9 M218.48 26.9 C218.48 37.98, 218.48 49.06, 218.48 80.71 M218.48 26.9 C218.48 47.99, 218.48 69.08, 218.48 80.71 M218.48 80.71 C218.48 98.64, 209.52 107.61, 191.58 107.61 M218.48 80.71 C218.48 98.64, 209.52 107.61, 191.58 107.61 M191.58 107.61 C133.59 107.61, 75.6 107.61, 26.9 107.61 M191.58 107.61 C155.34 107.61, 119.1 107.61, 26.9 107.61 M26.9 107.61 C8.97 107.61, 0 98.64, 0 80.71 M26.9 107.61 C8.97 107.61, 0 98.64, 0 80.71 M0 80.71 C0 69.85, 0 59, 0 26.9 M0 80.71 C0 66.62, 0 52.53, 0 26.9 M0 26.9 C0 8.97, 8.97 0, 26.9 0 M0 26.9 C0 8.97, 8.97 0, 26.9 0" stroke="#2f9e44" stroke-width="1" fill="none"></path></g><g transform="translate(260.9778770875778 274.88986527352716) rotate(0.06774835636379574 61.03196716308594 10)"><text x="0" y="0" font-family="Virgil, Segoe UI Emoji" font-size="16px" fill="#2f9e44" text-anchor="start" style="white-space: pre;" direction="ltr" dominant-baseline="text-before-edge">SSM Parameter</text></g><g stroke-linecap="round" transform="translate(579.0917289736801 120.89265543574129) rotate(0 95.81886667569836 62.59902609586942)"><path d="M31.3 0 M31.3 0 C63.69 0, 96.08 0, 160.34 0 M31.3 0 C74.77 0, 118.23 0, 160.34 0 M160.34 0 C181.2 0, 191.64 10.43, 191.64 31.3 M160.34 0 C181.2 0, 191.64 10.43, 191.64 31.3 M191.64 31.3 C191.64 53.9, 191.64 76.51, 191.64 93.9 M191.64 31.3 C191.64 48.58, 191.64 65.86, 191.64 93.9 M191.64 93.9 C191.64 114.76, 181.2 125.2, 160.34 125.2 M191.64 93.9 C191.64 114.76, 181.2 125.2, 160.34 125.2 M160.34 125.2 C112.47 125.2, 64.6 125.2, 31.3 125.2 M160.34 125.2 C130.45 125.2, 100.55 125.2, 31.3 125.2 M31.3 125.2 C10.43 125.2, 0 114.76, 0 93.9 M31.3 125.2 C10.43 125.2, 0 114.76, 0 93.9 M0 93.9 C0 80.53, 0 67.16, 0 31.3 M0 93.9 C0 73.99, 0 54.08, 0 31.3 M0 31.3 C0 10.43, 10.43 0, 31.3 0 M0 31.3 C0 10.43, 10.43 0, 31.3 0" stroke="#1971c2" stroke-width="1" fill="none"></path></g><g transform="translate(596.7826557818091 133.81317696153883) rotate(0 20.00798797607422 10)"><text x="0" y="0" font-family="Virgil, Segoe UI Emoji" font-size="16px" fill="#1971c2" text-anchor="start" style="white-space: pre;" direction="ltr" dominant-baseline="text-before-edge">Task</text></g><g stroke-linecap="round" transform="translate(259.0256419648447 300.54781839579823) rotate(0 77.79548433187142 30.683024800642585)"><path d="M15.34 0 M15.34 0 C63.13 0, 110.91 0, 140.25 0 M15.34 0 C64.09 0, 112.83 0, 140.25 0 M140.25 0 C150.48 0, 155.59 5.11, 155.59 15.34 M140.25 0 C150.48 0, 155.59 5.11, 155.59 15.34 M155.59 15.34 C155.59 22.82, 155.59 30.29, 155.59 46.02 M155.59 15.34 C155.59 21.51, 155.59 27.69, 155.59 46.02 M155.59 46.02 C155.59 56.25, 150.48 61.37, 140.25 61.37 M155.59 46.02 C155.59 56.25, 150.48 61.37, 140.25 61.37 M140.25 61.37 C91.4 61.37, 42.55 61.37, 15.34 61.37 M140.25 61.37 C95.1 61.37, 49.95 61.37, 15.34 61.37 M15.34 61.37 C5.11 61.37, 0 56.25, 0 46.02 M15.34 61.37 C5.11 61.37, 0 56.25, 0 46.02 M0 46.02 C0 37.24, 0 28.46, 0 15.34 M0 46.02 C0 37.41, 0 28.79, 0 15.34 M0 15.34 C0 5.11, 5.11 0, 15.34 0 M0 15.34 C0 5.11, 5.11 0, 15.34 0" stroke="#2f9e44" stroke-width="1" fill="none"></path></g><g transform="translate(271.9572148227853 309.41532450850934) rotate(0 61.04796600341797 20)"><text x="0" y="0" font-family="Virgil, Segoe UI Emoji" font-size="16px" fill="#2f9e44" text-anchor="start" style="white-space: pre;" direction="ltr" dominant-baseline="text-before-edge">Task Definition</text><text x="0" y="20" font-family="Virgil, Segoe UI Emoji" font-size="16px" fill="#2f9e44" text-anchor="start" style="white-space: pre;" direction="ltr" dominant-baseline="text-before-edge">Template JSON</text></g><g stroke-linecap="round" transform="translate(592.3588766553655 165.10633572080928) rotate(0 78.3832221445416 34.159634777223204)"><path d="M17.08 0 M17.08 0 C63.12 0, 109.15 0, 139.69 0 M17.08 0 C44.3 0, 71.51 0, 139.69 0 M139.69 0 C151.07 0, 156.77 5.69, 156.77 17.08 M139.69 0 C151.07 0, 156.77 5.69, 156.77 17.08 M156.77 17.08 C156.77 28.5, 156.77 39.93, 156.77 51.24 M156.77 17.08 C156.77 30.67, 156.77 44.26, 156.77 51.24 M156.77 51.24 C156.77 62.63, 151.07 68.32, 139.69 68.32 M156.77 51.24 C156.77 62.63, 151.07 68.32, 139.69 68.32 M139.69 68.32 C98.13 68.32, 56.58 68.32, 17.08 68.32 M139.69 68.32 C108.58 68.32, 77.48 68.32, 17.08 68.32 M17.08 68.32 C5.69 68.32, 0 62.63, 0 51.24 M17.08 68.32 C5.69 68.32, 0 62.63, 0 51.24 M0 51.24 C0 40.13, 0 29.01, 0 17.08 M0 51.24 C0 40.66, 0 30.07, 0 17.08 M0 17.08 C0 5.69, 5.69 0, 17.08 0 M0 17.08 C0 5.69, 5.69 0, 17.08 0" stroke="#f08c00" stroke-width="1" fill="none"></path></g><g transform="translate(600.6780779021974 207.5731663263108) rotate(0 63.127960205078125 10)"><text x="0" y="0" font-family="Virgil, Segoe UI Emoji" font-size="16px" fill="#2f9e44" text-anchor="start" style="white-space: pre;" direction="ltr" dominant-baseline="text-before-edge">IAC Environment</text></g><g stroke-linecap="round" transform="translate(231.93842689484063 10) rotate(0 118.8507844750759 94.33051222378009)"><path d="M32 0 M32 0 C97.04 0, 162.08 0, 205.7 0 M32 0 C87.47 0, 142.94 0, 205.7 0 M205.7 0 C227.03 0, 237.7 10.67, 237.7 32 M205.7 0 C227.03 0, 237.7 10.67, 237.7 32 M237.7 32 C237.7 66.65, 237.7 101.29, 237.7 156.66 M237.7 32 C237.7 68.22, 237.7 104.43, 237.7 156.66 M237.7 156.66 C237.7 177.99, 227.03 188.66, 205.7 188.66 M237.7 156.66 C237.7 177.99, 227.03 188.66, 205.7 188.66 M205.7 188.66 C168.86 188.66, 132.02 188.66, 32 188.66 M205.7 188.66 C164.88 188.66, 124.07 188.66, 32 188.66 M32 188.66 C10.67 188.66, 0 177.99, 0 156.66 M32 188.66 C10.67 188.66, 0 177.99, 0 156.66 M0 156.66 C0 127.98, 0 99.3, 0 32 M0 156.66 C0 108.37, 0 60.09, 0 32 M0 32 C0 10.67, 10.67 0, 32 0 M0 32 C0 10.67, 10.67 0, 32 0" stroke="#1971c2" stroke-width="1" fill="none"></path></g><g transform="translate(256.1533472505198 18.497255671854077) rotate(0 24.312522888183594 9.765742055406804)"><text x="0" y="0" font-family="Virgil, Segoe UI Emoji" font-size="15.62518728865091px" fill="#1971c2" text-anchor="start" style="white-space: pre;" direction="ltr" dominant-baseline="text-before-edge">CI/CD</text></g><g stroke-linecap="round" transform="translate(258.6721627235238 53.82059630926807) rotate(0 89.23666015759511 54.83279867288846)"><path d="M27.42 0 M27.42 0 C65.75 0, 104.09 0, 151.06 0 M27.42 0 C75.52 0, 123.62 0, 151.06 0 M151.06 0 C169.33 0, 178.47 9.14, 178.47 27.42 M151.06 0 C169.33 0, 178.47 9.14, 178.47 27.42 M178.47 27.42 C178.47 39.46, 178.47 51.51, 178.47 82.25 M178.47 27.42 C178.47 41.05, 178.47 54.68, 178.47 82.25 M178.47 82.25 C178.47 100.53, 169.33 109.67, 151.06 109.67 M178.47 82.25 C178.47 100.53, 169.33 109.67, 151.06 109.67 M151.06 109.67 C104.06 109.67, 57.06 109.67, 27.42 109.67 M151.06 109.67 C107.95 109.67, 64.84 109.67, 27.42 109.67 M27.42 109.67 C9.14 109.67, 0 100.53, 0 82.25 M27.42 109.67 C9.14 109.67, 0 100.53, 0 82.25 M0 82.25 C0 67.36, 0 52.48, 0 27.42 M0 82.25 C0 62.2, 0 42.16, 0 27.42 M0 27.42 C0 9.14, 9.14 0, 27.42 0 M0 27.42 C0 9.14, 9.14 0, 27.42 0" stroke="#1971c2" stroke-width="1" fill="none"></path></g><g transform="translate(273.66030748691173 66.15258910571907) rotate(0 51.335968017578125 10)"><text x="0" y="0" font-family="Virgil, Segoe UI Emoji" font-size="16px" fill="#1971c2" text-anchor="start" style="white-space: pre;" direction="ltr" dominant-baseline="text-before-edge">Task Pipeline</text></g><g transform="translate(601.7805043932083 177.19332716667935) rotate(0 66.87996673583984 10)"><text x="0" y="0" font-family="Virgil, Segoe UI Emoji" font-size="16px" fill="#f08c00" text-anchor="start" style="white-space: pre;" direction="ltr" dominant-baseline="text-before-edge">Code Environment</text></g><g stroke-linecap="round"><g transform="translate(446.00412581206706 112.46274821221317) rotate(0 65.33612815897675 17.65331091291972)"><path d="M0 0 C21.78 5.88, 108.89 29.42, 130.67 35.31 M0 0 C21.78 5.88, 108.89 29.42, 130.67 35.31" stroke="#1971c2" stroke-width="1" fill="none"></path></g><g transform="translate(446.00412581206706 112.46274821221317) rotate(0 65.33612815897675 17.65331091291972)"><path d="M130.67 35.31 L115.89 37.88 L119.2 25.64 L130.67 35.31" stroke="none" stroke-width="0" fill="#1971c2" fill-rule="evenodd"></path><path d="M130.67 35.31 C125.65 36.18, 120.63 37.06, 115.89 37.88 M130.67 35.31 C125.81 36.15, 120.95 37, 115.89 37.88 M115.89 37.88 C117.01 33.75, 118.13 29.61, 119.2 25.64 M115.89 37.88 C116.77 34.63, 117.65 31.38, 119.2 25.64 M119.2 25.64 C123.74 29.46, 128.27 33.28, 130.67 35.31 M119.2 25.64 C122.31 28.26, 125.42 30.88, 130.67 35.31 M130.67 35.31 C130.67 35.31, 130.67 35.31, 130.67 35.31 M130.67 35.31 C130.67 35.31, 130.67 35.31, 130.67 35.31" stroke="#1971c2" stroke-width="1" fill="none"></path></g></g><mask></mask><g stroke-linecap="round"><g transform="translate(255.63643434746314 333.49989358223866) rotate(0 -10.477127148187606 -94.72043851597113)"><path d="M0 0 C-7.88 -9.47, -51.73 -25.22, -47.29 -56.8 C-42.84 -88.37, 14.32 -167.33, 26.65 -189.44 M0 0 C-7.88 -9.47, -51.73 -25.22, -47.29 -56.8 C-42.84 -88.37, 14.32 -167.33, 26.65 -189.44" stroke="#1971c2" stroke-width="1" fill="none"></path></g><g transform="translate(255.63643434746314 333.49989358223866) rotate(0 -10.477127148187606 -94.72043851597113)"><path d="M26.65 -189.44 L24.72 -174.56 L14.01 -181.35 L26.65 -189.44" stroke="none" stroke-width="0" fill="#1971c2" fill-rule="evenodd"></path><path d="M26.65 -189.44 C25.98 -184.32, 25.32 -179.21, 24.72 -174.56 M26.65 -189.44 C26.21 -186.08, 25.78 -182.72, 24.72 -174.56 M24.72 -174.56 C20.7 -177.12, 16.67 -179.67, 14.01 -181.35 M24.72 -174.56 C22.15 -176.19, 19.58 -177.82, 14.01 -181.35 M14.01 -181.35 C16.92 -183.22, 19.83 -185.08, 26.65 -189.44 M14.01 -181.35 C17.98 -183.9, 21.96 -186.44, 26.65 -189.44 M26.65 -189.44 C26.65 -189.44, 26.65 -189.44, 26.65 -189.44 M26.65 -189.44 C26.65 -189.44, 26.65 -189.44, 26.65 -189.44" stroke="#1971c2" stroke-width="1" fill="none"></path></g></g><mask></mask><g stroke-linecap="round" transform="translate(10 10.46455187456047) rotate(0 80.32507329877348 124.30938061084356)"><path d="M32 0 M32 0 C52.49 0, 72.98 0, 128.65 0 M32 0 C68.18 0, 104.37 0, 128.65 0 M128.65 0 C149.98 0, 160.65 10.67, 160.65 32 M128.65 0 C149.98 0, 160.65 10.67, 160.65 32 M160.65 32 C160.65 81.74, 160.65 131.48, 160.65 216.62 M160.65 32 C160.65 92.41, 160.65 152.81, 160.65 216.62 M160.65 216.62 C160.65 237.95, 149.98 248.62, 128.65 248.62 M160.65 216.62 C160.65 237.95, 149.98 248.62, 128.65 248.62 M128.65 248.62 C95.88 248.62, 63.11 248.62, 32 248.62 M128.65 248.62 C91.15 248.62, 53.65 248.62, 32 248.62 M32 248.62 C10.67 248.62, 0 237.95, 0 216.62 M32 248.62 C10.67 248.62, 0 237.95, 0 216.62 M0 216.62 C0 177.31, 0 138, 0 32 M0 216.62 C0 148.57, 0 80.52, 0 32 M0 32 C0 10.67, 10.67 0, 32 0 M0 32 C0 10.67, 10.67 0, 32 0" stroke="#f08c00" stroke-width="1" fill="none"></path></g><g transform="translate(27.199745399158473 24.532372078625713) rotate(0 18.511985778808594 10)"><text x="0" y="0" font-family="Virgil, Segoe UI Emoji" font-size="16px" fill="#f08c00" text-anchor="start" style="white-space: pre;" direction="ltr" dominant-baseline="text-before-edge">Code</text></g><g stroke-linecap="round" transform="translate(22.41488444846061 63.28529274107632) rotate(0 62.27703513546544 50.810656144263646)"><path d="M25.41 0 M25.41 0 C41.61 0, 57.82 0, 99.15 0 M25.41 0 C50.16 0, 74.92 0, 99.15 0 M99.15 0 C116.09 0, 124.55 8.47, 124.55 25.41 M99.15 0 C116.09 0, 124.55 8.47, 124.55 25.41 M124.55 25.41 C124.55 37.04, 124.55 48.67, 124.55 76.22 M124.55 25.41 C124.55 37.32, 124.55 49.23, 124.55 76.22 M124.55 76.22 C124.55 93.15, 116.09 101.62, 99.15 101.62 M124.55 76.22 C124.55 93.15, 116.09 101.62, 99.15 101.62 M99.15 101.62 C81 101.62, 62.84 101.62, 25.41 101.62 M99.15 101.62 C82.69 101.62, 66.23 101.62, 25.41 101.62 M25.41 101.62 C8.47 101.62, 0 93.15, 0 76.22 M25.41 101.62 C8.47 101.62, 0 93.15, 0 76.22 M0 76.22 C0 65.61, 0 55, 0 25.41 M0 76.22 C0 61.88, 0 47.55, 0 25.41 M0 25.41 C0 8.47, 8.47 0, 25.41 0 M0 25.41 C0 8.47, 8.47 0, 25.41 0" stroke="#f08c00" stroke-width="1" fill="none"></path></g><g transform="translate(31.756424081922432 75.63522075763291) rotate(0 45.80796813964844 40)"><text x="0" y="0" font-family="Virgil, Segoe UI Emoji" font-size="16px" fill="#f08c00" text-anchor="start" style="white-space: pre;" direction="ltr" dominant-baseline="text-before-edge">Task</text><text x="0" y="20" font-family="Virgil, Segoe UI Emoji" font-size="16px" fill="#f08c00" text-anchor="start" style="white-space: pre;" direction="ltr" dominant-baseline="text-before-edge">- code</text><text x="0" y="40" font-family="Virgil, Segoe UI Emoji" font-size="16px" fill="#f08c00" text-anchor="start" style="white-space: pre;" direction="ltr" dominant-baseline="text-before-edge">- Dockerfile</text><text x="0" y="60" font-family="Virgil, Segoe UI Emoji" font-size="16px" fill="#f08c00" text-anchor="start" style="white-space: pre;" direction="ltr" dominant-baseline="text-before-edge">- config file</text></g><g stroke-linecap="round" transform="translate(25.084243040850424 182.71143961951498) rotate(0 62.27703513546544 24.299581044709726)"><path d="M12.15 0 M12.15 0 C49.59 0, 87.04 0, 112.4 0 M12.15 0 C50.87 0, 89.59 0, 112.4 0 M112.4 0 C120.5 0, 124.55 4.05, 124.55 12.15 M112.4 0 C120.5 0, 124.55 4.05, 124.55 12.15 M124.55 12.15 C124.55 18.43, 124.55 24.72, 124.55 36.45 M124.55 12.15 C124.55 21.49, 124.55 30.83, 124.55 36.45 M124.55 36.45 C124.55 44.55, 120.5 48.6, 112.4 48.6 M124.55 36.45 C124.55 44.55, 120.5 48.6, 112.4 48.6 M112.4 48.6 C82.26 48.6, 52.12 48.6, 12.15 48.6 M112.4 48.6 C84.64 48.6, 56.88 48.6, 12.15 48.6 M12.15 48.6 C4.05 48.6, 0 44.55, 0 36.45 M12.15 48.6 C4.05 48.6, 0 44.55, 0 36.45 M0 36.45 C0 27.87, 0 19.3, 0 12.15 M0 36.45 C0 30.98, 0 25.51, 0 12.15 M0 12.15 C0 4.05, 4.05 0, 12.15 0 M0 12.15 C0 4.05, 4.05 0, 12.15 0" stroke="#f08c00" stroke-width="1" fill="none"></path></g><g transform="translate(36.33289441221223 193.19610474508465) rotate(0 46.24797821044922 10)"><text x="0" y="0" font-family="Virgil, Segoe UI Emoji" font-size="16px" fill="#f08c00" text-anchor="start" style="white-space: pre;" direction="ltr" dominant-baseline="text-before-edge">Deploy Tool</text></g><g stroke-linecap="round"><g transform="translate(156.1697501116089 107.25331888707024) rotate(0 49.69401110770548 -1.2499563405700087)"><path d="M0 0 C16.56 -0.42, 82.82 -2.08, 99.39 -2.5 M0 0 C16.56 -0.42, 82.82 -2.08, 99.39 -2.5" stroke="#1971c2" stroke-width="1" fill="none"></path></g><g transform="translate(156.1697501116089 107.25331888707024) rotate(0 49.69401110770548 -1.2499563405700087)"><path d="M99.39 -2.5 L85.96 4.18 L85.64 -8.5 L99.39 -2.5" stroke="none" stroke-width="0" fill="#1971c2" fill-rule="evenodd"></path><path d="M99.39 -2.5 C94.3 0.03, 89.21 2.56, 85.96 4.18 M99.39 -2.5 C96.17 -0.9, 92.95 0.7, 85.96 4.18 M85.96 4.18 C85.83 -0.71, 85.71 -5.59, 85.64 -8.5 M85.96 4.18 C85.87 0.68, 85.78 -2.83, 85.64 -8.5 M85.64 -8.5 C89.23 -6.93, 92.83 -5.36, 99.39 -2.5 M85.64 -8.5 C90.69 -6.29, 95.75 -4.09, 99.39 -2.5 M99.39 -2.5 C99.39 -2.5, 99.39 -2.5, 99.39 -2.5 M99.39 -2.5 C99.39 -2.5, 99.39 -2.5, 99.39 -2.5" stroke="#1971c2" stroke-width="1" fill="none"></path></g></g><mask></mask><g stroke-linecap="round"><g transform="translate(156.6809038846203 196.86213222003275) rotate(0 48.74045523875549 -41.1103832007809)"><path d="M0 0 C16.25 -13.7, 81.23 -68.52, 97.48 -82.22 M0 0 C16.25 -13.7, 81.23 -68.52, 97.48 -82.22" stroke="#1971c2" stroke-width="1" fill="none"></path></g><g transform="translate(156.6809038846203 196.86213222003275) rotate(0 48.74045523875549 -41.1103832007809)"><path d="M97.48 -82.22 L91.18 -68.61 L83 -78.3 L97.48 -82.22" stroke="none" stroke-width="0" fill="#1971c2" fill-rule="evenodd"></path><path d="M97.48 -82.22 C94.98 -76.81, 92.47 -71.41, 91.18 -68.61 M97.48 -82.22 C95.96 -78.94, 94.44 -75.67, 91.18 -68.61 M91.18 -68.61 C88.14 -72.21, 85.11 -75.8, 83 -78.3 M91.18 -68.61 C89.36 -70.76, 87.55 -72.91, 83 -78.3 M83 -78.3 C87.45 -79.5, 91.89 -80.71, 97.48 -82.22 M83 -78.3 C86.24 -79.18, 89.47 -80.05, 97.48 -82.22 M97.48 -82.22 C97.48 -82.22, 97.48 -82.22, 97.48 -82.22 M97.48 -82.22 C97.48 -82.22, 97.48 -82.22, 97.48 -82.22" stroke="#1971c2" stroke-width="1" fill="none"></path></g></g><mask></mask><g stroke-linecap="round"><g transform="translate(479.5567146330752 307.4587154675438) rotate(0 22.2038024907838 -2.4720711712275545)"><path d="M0 0 C7.4 -0.82, 37.01 -4.12, 44.41 -4.94 M0 0 C7.4 -0.82, 37.01 -4.12, 44.41 -4.94" stroke="#2f9e44" stroke-width="1" fill="none"></path></g><g transform="translate(479.5567146330752 307.4587154675438) rotate(0 22.2038024907838 -2.4720711712275545)"><path d="M44.41 -4.94 L31.6 2.86 L30.2 -9.74 L44.41 -4.94" stroke="none" stroke-width="0" fill="#2f9e44" fill-rule="evenodd"></path><path d="M44.41 -4.94 C41.63 -3.25, 38.84 -1.55, 31.6 2.86 M44.41 -4.94 C39.41 -1.9, 34.42 1.14, 31.6 2.86 M31.6 2.86 C31.27 -0.08, 30.94 -3.03, 30.2 -9.74 M31.6 2.86 C31.04 -2.14, 30.49 -7.13, 30.2 -9.74 M30.2 -9.74 C35.04 -8.1, 39.89 -6.47, 44.41 -4.94 M30.2 -9.74 C35.83 -7.84, 41.46 -5.94, 44.41 -4.94 M44.41 -4.94 C44.41 -4.94, 44.41 -4.94, 44.41 -4.94 M44.41 -4.94 C44.41 -4.94, 44.41 -4.94, 44.41 -4.94" stroke="#2f9e44" stroke-width="1" fill="none"></path></g></g><mask></mask><g stroke-linecap="round"><g transform="translate(446.1044364462748 143.91296898500178) rotate(0 52.251959030040894 83.37996351553767)"><path d="M0 0 C17.42 27.79, 87.09 138.97, 104.5 166.76 M0 0 C17.42 27.79, 87.09 138.97, 104.5 166.76" stroke="#1971c2" stroke-width="1" fill="none"></path></g><g transform="translate(446.1044364462748 143.91296898500178) rotate(0 52.251959030040894 83.37996351553767)"><path d="M104.5 166.76 L91.91 158.61 L102.66 151.87 L104.5 166.76" stroke="none" stroke-width="0" fill="#1971c2" fill-rule="evenodd"></path><path d="M104.5 166.76 C100.37 164.08, 96.23 161.4, 91.91 158.61 M104.5 166.76 C100.68 164.28, 96.85 161.8, 91.91 158.61 M91.91 158.61 C94.77 156.81, 97.64 155.02, 102.66 151.87 M91.91 158.61 C95.35 156.45, 98.79 154.3, 102.66 151.87 M102.66 151.87 C103.38 157.7, 104.1 163.53, 104.5 166.76 M102.66 151.87 C103.3 157.07, 103.95 162.27, 104.5 166.76 M104.5 166.76 C104.5 166.76, 104.5 166.76, 104.5 166.76 M104.5 166.76 C104.5 166.76, 104.5 166.76, 104.5 166.76" stroke="#1971c2" stroke-width="1" fill="none"></path></g></g><mask></mask><g stroke-linecap="round" transform="translate(564.2132987918224 305.14667351494995) rotate(0 97.3762978257704 16.27582497444314)"><path d="M8.14 0 M8.14 0 C73.2 0, 138.26 0, 186.61 0 M8.14 0 C70.71 0, 133.28 0, 186.61 0 M186.61 0 C192.04 0, 194.75 2.71, 194.75 8.14 M186.61 0 C192.04 0, 194.75 2.71, 194.75 8.14 M194.75 8.14 C194.75 14.56, 194.75 20.98, 194.75 24.41 M194.75 8.14 C194.75 12.08, 194.75 16.02, 194.75 24.41 M194.75 24.41 C194.75 29.84, 192.04 32.55, 186.61 32.55 M194.75 24.41 C194.75 29.84, 192.04 32.55, 186.61 32.55 M186.61 32.55 C123.02 32.55, 59.43 32.55, 8.14 32.55 M186.61 32.55 C133.05 32.55, 79.49 32.55, 8.14 32.55 M8.14 32.55 C2.71 32.55, 0 29.84, 0 24.41 M8.14 32.55 C2.71 32.55, 0 29.84, 0 24.41 M0 24.41 C0 19.98, 0 15.55, 0 8.14 M0 24.41 C0 18.05, 0 11.68, 0 8.14 M0 8.14 C0 2.71, 2.71 0, 8.14 0 M0 8.14 C0 2.71, 2.71 0, 8.14 0" stroke="#1971c2" stroke-width="1" fill="none"></path></g><g transform="translate(574.4425358262545 312.74615397261925) rotate(0 50.93597412109375 10)"><text x="0" y="0" font-family="Virgil, Segoe UI Emoji" font-size="16px" fill="#1971c2" text-anchor="start" style="white-space: pre;" direction="ltr" dominant-baseline="text-before-edge">Docker image</text></g></svg>